HIERARCHY
ROOT Hips
{
 OFFSET 0.000000 0.000000 0.000000
 CHANNELS 6 Xposition Yposition Zposition Yrotation Xrotation Zrotation
 JOINT Chest
 {
  OFFSET 0.000000 9.588913 -0.003946
  CHANNELS 3 Yrotation Xrotation Zrotation
  JOINT Chest2
  {
   OFFSET 0.000000 9.541882 0.008053
   CHANNELS 3 Yrotation Xrotation Zrotation
   JOINT Chest3
   {
    OFFSET 0.000000 9.501360 0.000000
    CHANNELS 3 Yrotation Xrotation Zrotation
    JOINT Chest4
    {
     OFFSET 0.000000 9.491660 0.000000
     CHANNELS 3 Yrotation Xrotation Zrotation
     JOINT Neck
     {
      OFFSET 0.000000 14.331917 0.000000
      CHANNELS 3 Yrotation Xrotation Zrotation
      JOINT Head
      {
       OFFSET 0.000000 8.884799 0.017034
       CHANNELS 3 Yrotation Xrotation Zrotation
       End Site
       {
        OFFSET 0.000000 16.896195 0.008993
       }
      }
     }
     JOINT RightCollar
     {
      OFFSET -2.923010 9.499495 0.000000
      CHANNELS 3 Yrotation Xrotation Zrotation
      JOINT RightShoulder
      {
       OFFSET -13.795216 0.000000 0.000000
       CHANNELS 3 Yrotation Xrotation Zrotation
       JOINT RightElbow
       {
        OFFSET -30.272209 0.000000 0.000000
        CHANNELS 3 Yrotation Xrotation Zrotation
        JOINT RightWrist
        {
         OFFSET -24.478199 0.000000 0.000000
         CHANNELS 3 Yrotation Xrotation Zrotation
         End Site
         {
          OFFSET -18.090752 0.000000 0.000000
         }
        }
       }
      }
     }
     JOINT LeftCollar
     {
      OFFSET 2.923010 9.499495 0.000000
      CHANNELS 3 Yrotation Xrotation Zrotation
      JOINT LeftShoulder
      {
       OFFSET 13.795216 0.000000 0.000000
       CHANNELS 3 Yrotation Xrotation Zrotation
       JOINT LeftElbow
       {
        OFFSET 30.272209 0.000000 0.000000
        CHANNELS 3 Yrotation Xrotation Zrotation
        JOINT LeftWrist
        {
         OFFSET 24.478199 0.000000 0.000000
         CHANNELS 3 Yrotation Xrotation Zrotation
         End Site
         {
          OFFSET 18.090752 0.000000 0.000000
         }
        }
       }
      }
     }
    }
   }
  }
 }
 JOINT RightHip
 {
  OFFSET -7.826875 0.019532 0.001973
  CHANNELS 3 Yrotation Xrotation Zrotation
  JOINT RightKnee
  {
   OFFSET 0.000000 -40.546152 -0.001885
   CHANNELS 3 Yrotation Xrotation Zrotation
   JOINT RightAnkle
   {
    OFFSET 0.000000 -39.417092 -0.003189
    CHANNELS 3 Yrotation Xrotation Zrotation
    JOINT RightToe
    {
     OFFSET 0.000000 -7.579396 17.243563
     CHANNELS 3 Yrotation Xrotation Zrotation
     End Site
     {
      OFFSET 0.000000 -1.500329 6.694466
     }
    }
   }
  }
 }
 JOINT LeftHip
 {
  OFFSET 7.826875 0.019532 0.001973
  CHANNELS 3 Yrotation Xrotation Zrotation
  JOINT LeftKnee
  {
   OFFSET 0.000000 -40.546152 -0.001885
   CHANNELS 3 Yrotation Xrotation Zrotation
   JOINT LeftAnkle
   {
    OFFSET 0.000000 -39.417092 -0.003189
    CHANNELS 3 Yrotation Xrotation Zrotation
    JOINT LeftToe
    {
     OFFSET 0.000000 -7.579396 17.243563
     CHANNELS 3 Yrotation Xrotation Zrotation
     End Site
     {
      OFFSET 0.000000 -1.500329 6.694466
     }
    }
   }
  }
 }
}
MOTION
Frames: 14
Frame Time: 0.008333
-15.973276 89.725115 13.515222 177.746679 -0.737598 -0.551006 -1.371812 2.332756 -0.439355 -0.788409 1.345853 -0.234171 -0.986438 1.681802 -0.295627 -0.788409 1.345853 -0.234171 19.156822 15.141684 -4.026621 24.129473 -8.145396 -9.625473 -5.150311 4.935152 -4.908816 -7.875781 13.139375 90.075507 -0.915059 -1.628266 -1.397673 1.621194 -3.321320 -2.720026 7.830831 2.949739 5.414731 1.026157 13.481587 -85.796598 7.547769 6.026903 -3.621629 2.884553 -3.753561 -2.218330 0.469945 -2.679077 -2.366651 5.317462 6.398835 -0.742652 -2.046530 -18.556969 3.255125 -0.027580 0.775373 0.286599 0.009294 -2.150314 3.976639 1.932910 6.843996 0.882023 3.473014 -17.175120 -6.388141 0.010866 0.276560 -0.024723
-15.933293 89.757095 13.571811 177.694934 -0.676612 -0.585697 -1.366006 2.326748 -0.420644 -0.785259 1.341435 -0.230949 -0.982486 1.676289 -0.291578 -0.785259 1.341435 -0.230949 19.164961 15.006538 -4.061065 24.162977 -8.301854 -9.678816 -5.412293 5.055322 -5.162422 -8.068947 13.577564 89.974286 -0.922794 -1.513028 -1.402235 1.536101 -3.329080 -2.691691 8.198260 3.047400 5.783025 1.515305 14.137189 -85.452326 7.403618 6.357603 -3.957024 2.760619 -3.846491 -2.122736 0.521897 -2.607922 -2.303976 5.249432 6.091571 -0.765537 -2.013662 -18.585950 3.209484 -0.019617 0.725988 0.246930 -0.029238 -2.202740 4.007668 1.925444 6.791596 0.875103 3.826834 -17.195769 -6.413423 0.023265 0.204372 -0.026258
-15.891367 89.785507 13.624314 177.635798 -0.614312 -0.613276 -1.352702 2.318672 -0.409461 -0.777233 1.335695 -0.227609 -0.972436 1.669126 -0.287361 -0.777233 1.335695 -0.227609 19.164036 14.871613 -4.095119 24.183938 -8.459506 -9.729077 -5.661650 5.171970 -5.406769 -8.262019 14.003545 89.888737 -0.930440 -1.372884 -1.419548 1.446464 -3.334889 -2.650967 8.550993 3.139393 6.139787 2.030930 14.752516 -85.113122 7.258688 6.622596 -4.279235 2.607709 -3.959111 -2.001144 0.569293 -2.540466 -2.247581 5.183153 5.787493 -0.786535 -1.982755 -18.584046 3.171820 -0.011398 0.655625 0.208900 -0.064705 -2.239412 4.064645 1.913341 6.714713 0.865119 4.050927 -17.191954 -6.461896 0.019259 0.171394 -0.019381
-15.847018 89.810312 13.673241 177.572512 -0.549835 -0.639225 -1.333594 2.308418 -0.399958 -0.765977 1.328420 -0.224118 -0.958348 1.660046 -0.282941 -0.765977 1.328420 -0.224118 19.155298 14.736690 -4.127946 24.193814 -8.618473 -9.775590 -5.896821 5.291543 -5.632924 -8.453282 14.402660 89.807969 -0.941936 -1.220698 -1.441861 1.352204 -3.339234 -2.606378 8.888892 3.232562 6.476880 2.567210 15.319998 -84.773782 7.122541 6.818412 -4.591257 2.434403 -4.078970 -1.863186 0.618454 -2.485094 -2.190372 5.125574 5.505479 -0.808730 -1.961266 -18.612040 3.143198 -0.004882 0.613977 0.172913 -0.093659 -2.269097 4.136151 1.907349 6.629296 0.852859 4.195350 -17.217743 -6.523177 0.009922 0.160640 -0.005307
-15.801027 89.831524 13.718921 177.507656 -0.483521 -0.662441 -1.311056 2.295072 -0.392602 -0.752954 1.319495 -0.220893 -0.942050 1.648906 -0.278844 -0.752954 1.319495 -0.220894 19.141800 14.602676 -4.158428 24.196401 -8.777273 -9.817830 -6.112520 5.422260 -5.834508 -8.634449 14.762687 89.717196 -0.962397 -1.075557 -1.455877 1.256160 -3.338924 -2.563497 9.215132 3.332096 6.793410 3.101459 15.832584 -84.425045 6.995924 6.940841 -4.911005 2.260971 -4.205986 -1.708598 0.672447 -2.440770 -2.136199 5.074543 5.242345 -0.828264 -1.947168 -18.639289 3.120528 0.001598 0.573650 0.139240 -0.110344 -2.289198 4.207712 1.903777 6.525269 0.840670 4.297457 -17.245763 -6.585953 -0.000230 0.155393 0.009270
-15.754146 89.849231 13.761681 177.441076 -0.416211 -0.682903 -1.285614 2.278338 -0.386650 -0.738617 1.308968 -0.218359 -0.924111 1.635761 -0.275603 -0.738617 1.308968 -0.218359 19.125238 14.471215 -4.186734 24.193966 -8.933649 -9.856395 -6.302386 5.556282 -6.014697 -8.809223 15.089393 89.617041 -0.992597 -0.944037 -1.458821 1.157702 -3.336624 -2.524828 9.530744 3.434373 7.094394 3.607358 16.287502 -84.063656 6.889775 6.996991 -5.244633 2.098458 -4.347899 -1.544396 0.729923 -2.407523 -2.087796 5.029634 4.998404 -0.840586 -1.935450 -18.664037 3.102734 0.008394 0.534214 0.106323 -0.112475 -2.300654 4.273560 1.908062 6.404410 0.830196 4.371029 -17.275636 -6.645576 -0.008824 0.156794 0.021698
-15.707569 89.863592 13.801441 177.376147 -0.351425 -0.698676 -1.258088 2.260693 -0.382192 -0.723397 1.298119 -0.216924 -0.905072 1.622212 -0.273733 -0.723397 1.298119 -0.216924 19.105057 14.342518 -4.214376 24.186203 -9.087278 -9.892948 -6.475500 5.676269 -6.181805 -8.978521 15.398075 89.524987 -1.031207 -0.826379 -1.463106 1.056144 -3.332082 -2.490621 9.831740 3.528209 7.381354 4.071883 16.691999 -83.698127 6.811974 6.999574 -5.582041 1.934258 -4.498162 -1.384627 0.787809 -2.384329 -2.047504 4.992526 4.780832 -0.846977 -1.924202 -18.713990 3.091556 0.013888 0.519734 0.073631 -0.104604 -2.305549 4.329628 1.922481 6.279248 0.822224 4.425334 -17.336584 -6.702956 -0.013750 0.187904 0.032721
-15.662529 89.874831 13.838165 177.320300 -0.292606 -0.708079 -1.231183 2.245690 -0.379859 -0.708721 1.288404 -0.216674 -0.886718 1.610077 -0.273349 -0.708721 1.288404 -0.216674 19.081522 14.216060 -4.243857 24.174350 -9.238491 -9.930680 -6.642353 5.777866 -6.336063 -9.135552 15.690719 89.455041 -1.073444 -0.729901 -1.478818 0.953619 -3.328210 -2.461110 10.112377 3.607341 7.650354 4.501772 17.056703 -83.344964 6.754962 6.967745 -5.901834 1.778840 -4.643044 -1.236450 0.843800 -2.365292 -2.018438 4.959366 4.584007 -0.846352 -1.913008 -18.734842 3.081986 0.018942 0.480486 0.044546 -0.094593 -2.301811 4.376245 1.946388 6.146380 0.813289 4.459786 -17.369828 -6.754484 -0.020881 0.195254 0.041060
-15.620001 89.883228 13.872445 177.278411 -0.239449 -0.711072 -1.207658 2.233455 -0.377805 -0.696154 1.280290 -0.217051 -0.871004 1.599943 -0.273761 -0.696154 1.280290 -0.217051 19.056463 14.092354 -4.278292 24.161954 -9.386076 -9.973967 -6.801666 5.865447 -6.477692 -9.280503 15.963203 89.407392 -1.114515 -0.659869 -1.505415 0.851917 -3.330502 -2.436161 10.370627 3.674775 7.891999 4.908835 17.385321 -83.014246 6.713296 6.925150 -6.179171 1.648308 -4.772343 -1.106811 0.895017 -2.351003 -2.000516 4.927949 4.410561 -0.839295 -1.903252 -18.753558 3.072266 0.021802 0.442498 0.020084 -0.088142 -2.296513 4.414589 1.977510 6.019653 0.803594 4.475213 -17.404164 -6.804974 -0.027935 0.201242 0.049690
-15.580630 89.889114 13.904593 177.252655 -0.192893 -0.708942 -1.188760 2.224125 -0.375129 -0.686328 1.274193 -0.217595 -0.858719 1.592326 -0.274395 -0.686328 1.274193 -0.217595 19.031018 13.970718 -4.319033 24.151117 -9.530541 -10.024880 -6.950391 5.942376 -6.605657 -9.422139 16.207392 89.371876 -1.158444 -0.612577 -1.536528 0.757378 -3.339535 -2.411276 10.603712 3.733974 8.100984 5.304980 17.676630 -82.699731 6.679960 6.894674 -6.408832 1.548386 -4.877019 -0.997197 0.937431 -2.338432 -1.991212 4.898128 4.256684 -0.829633 -1.894005 -18.768058 3.064209 0.022385 0.406211 -0.000380 -0.090899 -2.292605 4.445193 2.010639 5.905967 0.795257 4.481011 -17.438851 -6.859730 -0.034499 0.203766 0.061048
-15.544706 89.892860 13.934801 177.244760 -0.153645 -0.704055 -1.174701 2.217708 -0.372655 -0.679193 1.270263 -0.218207 -0.849799 1.587416 -0.275128 -0.679193 1.270263 -0.218207 19.004856 13.850223 -4.365584 24.141296 -9.673099 -10.082781 -7.083967 6.012465 -6.712093 -9.569978 16.412641 89.336204 -1.215007 -0.585969 -1.564744 0.678214 -3.352346 -2.384412 10.807731 3.784613 8.282143 5.700096 17.932883 -82.393062 6.645110 6.898429 -6.597783 1.479474 -4.952393 -0.904131 0.967437 -2.326269 -1.986421 4.865480 4.121683 -0.820857 -1.882605 -18.777862 3.060459 0.021227 0.371554 -0.018292 -0.107604 -2.293685 4.469746 2.043997 5.813223 0.789905 4.482713 -17.473891 -6.920541 -0.040542 0.201364 0.074902
-15.512881 89.894853 13.963291 177.256469 -0.120616 -0.695369 -1.166743 2.213283 -0.370596 -0.674983 1.267966 -0.218790 -0.844537 1.584547 -0.275837 -0.674983 1.267966 -0.218789 18.977836 13.732144 -4.418779 24.132458 -9.812182 -10.148577 -7.200532 6.075606 -6.798967 -9.719158 16.578198 89.299494 -1.285772 -0.580680 -1.585785 0.613504 -3.368601 -2.355541 10.979895 3.826998 8.438926 6.093917 18.160952 -82.096792 6.602766 6.948495 -6.746331 1.437376 -5.003067 -0.828551 0.980017 -2.315216 -1.987313 4.825655 4.005001 -0.813052 -1.866192 -18.783275 3.065974 0.019570 0.339211 -0.037528 -0.136711 -2.303692 4.487528 2.074129 5.745327 0.784891 4.480443 -17.506649 -6.980503 -0.045508 0.192724 0.087188
-15.486460 89.895480 13.989720 177.286440 -0.094279 -0.676429 -1.165795 2.210771 -0.374541 -0.673351 1.267087 -0.219119 -0.842497 1.583449 -0.276242 -0.673351 1.267087 -0.219119 18.949640 13.617949 -4.479271 24.124240 -9.946035 -10.222885 -7.305432 6.129198 -6.870820 -9.858116 16.709331 89.267347 -1.366211 -0.593738 -1.603774 0.557090 -3.386061 -2.323808 11.116713 3.866147 8.571868 6.469576 18.360733 -81.818151 6.557919 7.027799 -6.860162 1.410433 -5.034431 -0.773673 0.971757 -2.307652 -2.000940 4.780554 3.910830 -0.804496 -1.845164 -18.793680 3.082295 0.018502 0.316662 -0.058970 -0.173357 -2.322717 4.489366 2.094903 5.706398 0.779858 4.476985 -17.563911 -7.034782 -0.045368 0.202802 0.096854
-15.463072 89.895169 14.013490 177.328693 -0.076170 -0.661456 -1.167452 2.211815 -0.372348 -0.672689 1.267756 -0.218634 -0.841668 1.584287 -0.275635 -0.672689 1.267756 -0.218634 18.918110 13.508146 -4.546159 24.113264 -10.074479 -10.303877 -7.404399 6.172259 -6.925349 -9.983381 16.811515 89.241742 -1.446715 -0.621210 -1.623558 0.503522 -3.395837 -2.289695 11.217289 3.901688 8.681155 6.801793 18.526856 -81.564213 6.522992 7.102977 -6.948317 1.390757 -5.045742 -0.744023 0.946483 -2.301278 -2.011993 4.735440 3.840864 -0.794013 -1.821676 -18.793703 3.100951 0.018496 0.283835 -0.077109 -0.214869 -2.345665 4.493198 2.104146 5.684669 0.774564 4.479218 -17.585162 -7.083034 -0.046814 0.181210 0.101087
